<svg xmlns="http://www.w3.org/2000/svg" viewBox="0 0 64 64" role="img" aria-label="Lunch Vote favicon">
  <defs>
    <linearGradient id="bg" x1="10%" y1="8%" x2="88%" y2="92%">
      <stop offset="0%" stop-color="#0b1b2c" />
      <stop offset="58%" stop-color="#15415c" />
      <stop offset="100%" stop-color="#1d6f7d" />
    </linearGradient>
    <linearGradient id="plate" x1="18%" y1="16%" x2="82%" y2="86%">
      <stop offset="0%" stop-color="#f9fafb" />
      <stop offset="100%" stop-color="#dbeafe" />
    </linearGradient>
    <linearGradient id="wave" x1="20%" y1="32%" x2="80%" y2="78%">
      <stop offset="0%" stop-color="#55e6c1" />
      <stop offset="100%" stop-color="#1d9bf0" />
    </linearGradient>
    <linearGradient id="sun" x1="35%" y1="30%" x2="70%" y2="70%">
      <stop offset="0%" stop-color="#fff4c2" />
      <stop offset="100%" stop-color="#ffad5a" />
    </linearGradient>
  </defs>

  <rect x="2" y="2" width="60" height="60" rx="18" fill="url(#bg)" />

  <circle cx="32" cy="32" r="19.5" fill="url(#plate)" />
  <circle cx="32" cy="32" r="15.5" fill="none" stroke="#d7e9f8" stroke-width="2.2" opacity="0.9" />

  <circle cx="38.2" cy="25.2" r="4.9" fill="url(#sun)" />

  <path
    d="M17 35.6c3.2-3.2 7.4-4.8 12.7-4.8 4.9 0 8.8 1.1 11.8 3.2 2.7 1.9 4.8 4.5 6.4 7.8-2.8 2.8-6.8 4.6-10.9 4.6H17.4c-1.5-3.7-1.8-7.2-.4-10.8z"
    fill="url(#wave)"
  />

  <path
    d="M17.5 36.6c3.7-2.7 7.5-4 11.8-4 5.4 0 9.7 1.5 13 4.6"
    fill="none"
    stroke="#f8fdff"
    stroke-linecap="round"
    stroke-width="2.5"
    opacity="0.95"
  />

  <g fill="none" stroke="#ecfeff" stroke-linecap="round" stroke-width="2.2">
    <path d="M49.5 18.5v9.5" />
    <path d="M46.7 18.5v5.6" />
    <path d="M52.3 18.5v5.6" />
    <path d="M49.5 30.4v14.1" />
  </g>
</svg>
