<svg xmlns="http://www.w3.org/2000/svg" viewBox="0 0 64 64" role="img" aria-label="Lunch bowl favicon">
  <defs>
    <linearGradient id="bg" x1="0%" y1="0%" x2="100%" y2="100%">
      <stop offset="0%" stop-color="#0b1224" />
      <stop offset="100%" stop-color="#1f3b8a" />
    </linearGradient>
    <linearGradient id="bowl" x1="0%" y1="0%" x2="0%" y2="100%">
      <stop offset="0%" stop-color="#fb923c" />
      <stop offset="100%" stop-color="#ea580c" />
    </linearGradient>
  </defs>

  <rect x="2" y="2" width="60" height="60" rx="16" fill="url(#bg)" />

  <g fill="none" stroke="#f8fafc" stroke-width="2.2" stroke-linecap="round" opacity="0.9">
    <path d="M19 18c0-2.5 2-4.5 4.5-4.5S28 15.5 28 18" />
    <path d="M26 18c0-2.5 2-4.5 4.5-4.5S35 15.5 35 18" />
    <path d="M33 18c0-2.5 2-4.5 4.5-4.5S42 15.5 42 18" />
  </g>

  <path d="M14 31h36c0 10.8-8.4 19-18 19s-18-8.2-18-19z" fill="url(#bowl)" />
  <path d="M11 31h42" stroke="#fed7aa" stroke-width="3" stroke-linecap="round" />
  <path d="M16 41h32" stroke="#ffedd5" stroke-width="2" stroke-linecap="round" opacity="0.55" />

  <g stroke="#f8fafc" stroke-linecap="round" stroke-width="2.1">
    <path d="M52 17v16" />
    <path d="M49.5 17v8.5" />
    <path d="M54.5 17v8.5" />
    <path d="M52 33v15" />
  </g>
</svg>
