<svg xmlns="http://www.w3.org/2000/svg" viewBox="0 0 64 64" role="img" aria-label="ABB Lunch Vote icon">
  <defs>
    <radialGradient id="bg" cx="50%" cy="20%" r="80%">
      <stop offset="0%" stop-color="#38bdf8" />
      <stop offset="35%" stop-color="#2563eb" />
      <stop offset="100%" stop-color="#0f172a" />
    </radialGradient>
    <linearGradient id="ring" x1="0%" y1="0%" x2="100%" y2="100%">
      <stop offset="0%" stop-color="#fef3c7" />
      <stop offset="100%" stop-color="#f97316" />
    </linearGradient>
    <linearGradient id="utensil" x1="0%" y1="0%" x2="0%" y2="100%">
      <stop offset="0%" stop-color="#ffffff" />
      <stop offset="100%" stop-color="#cbd5f5" />
    </linearGradient>
  </defs>
  <circle cx="32" cy="32" r="30" fill="url(#bg)" />
  <circle cx="32" cy="32" r="24" fill="none" stroke="url(#ring)" stroke-width="2.2" opacity="0.85" />
  <g fill="none" stroke="url(#utensil)" stroke-linecap="round" stroke-width="2.5">
    <path d="M22 18v18c0 2.5-1.8 4.6-4.3 5l-.2.03c-1.1.15-1.5-1.26-.55-1.83C19.5 38.18 21 36.7 21 34V18" />
    <path d="M41 18s3 2 3 6-2 6-3 6-3-2-3-6 3-6 3-6z" />
    <path d="M28 18v25" />
    <path d="M34 18v25" />
  </g>
  <path d="M18 45h28" stroke="url(#utensil)" stroke-width="2" stroke-linecap="round" opacity="0.5" />
</svg>
